<?xml version="1.0" standalone="no"?>
<!DOCTYPE svg PUBLIC "-//W3C//DTD SVG 20010904//EN"
 "http://www.w3.org/TR/2001/REC-SVG-20010904/DTD/svg10.dtd">
<svg version="1.0" xmlns="http://www.w3.org/2000/svg"
 width="840.000000pt" height="840.000000pt" viewBox="0 0 840.000000 840.000000"
 preserveAspectRatio="xMidYMid meet">

<g transform="translate(0.000000,840.000000) scale(0.100000,-0.100000)"
fill="#000000" stroke="none">
<path d="M3965 8094 c-22 -2 -91 -9 -153 -14 -237 -22 -518 -79 -769 -156
-1287 -397 -2295 -1458 -2621 -2760 -75 -296 -109 -545 -119 -859 -41 -1327
605 -2583 1717 -3337 519 -352 1094 -564 1750 -645 177 -21 643 -24 820 -5
766 84 1466 371 2055 845 669 537 1152 1301 1349 2133 74 313 101 554 100 909
0 300 -12 445 -60 705 -189 1025 -786 1937 -1649 2519 -533 360 -1098 569
-1750 647 -115 14 -586 26 -670 18z m1101 -1528 c56 -8 150 -26 210 -40 109
-24 339 -94 332 -101 -2 -2 -60 -22 -128 -45 -614 -201 -1105 -684 -1300
-1280 -196 -597 -87 -1239 298 -1757 85 -113 282 -310 395 -395 378 -280 825
-428 1298 -428 l132 0 -59 -47 c-258 -202 -587 -360 -926 -443 -230 -56 -310
-65 -603 -65 -236 0 -287 3 -409 23 -688 116 -1286 499 -1656 1062 -132 200
-259 498 -309 727 -43 191 -54 292 -54 498 0 356 64 642 213 953 130 271 266
459 491 679 323 315 755 540 1214 632 87 17 141 25 305 45 75 9 460 -4 556
-18z"/>
</g>
</svg>
